<?xml version="1.0" encoding="UTF-8" standalone="no"?>
<!-- Svg Vector Icons : http://www.onlinewebfonts.com/icon -->

<svg
   xmlns:dc="http://purl.org/dc/elements/1.1/"
   xmlns:cc="http://creativecommons.org/ns#"
   xmlns:rdf="http://www.w3.org/1999/02/22-rdf-syntax-ns#"
   xmlns:svg="http://www.w3.org/2000/svg"
   xmlns="http://www.w3.org/2000/svg"
   xmlns:sodipodi="http://sodipodi.sourceforge.net/DTD/sodipodi-0.dtd"
   xmlns:inkscape="http://www.inkscape.org/namespaces/inkscape"
   version="1.1"
   x="0px"
   y="0px"
   viewBox="0 0 900 200.12001"
   enable-background="new 0 0 1000 1000"
   xml:space="preserve"
   id="svg2"
   inkscape:version="0.91 r13725"
   sodipodi:docname="logo.svg"
   width="900"
   height="200.12001"><defs
     id="defs22" /><sodipodi:namedview
     pagecolor="#ffffff"
     bordercolor="#666666"
     borderopacity="1"
     objecttolerance="10"
     gridtolerance="10"
     guidetolerance="10"
     inkscape:pageopacity="0"
     inkscape:pageshadow="2"
     inkscape:window-width="1680"
     inkscape:window-height="987"
     id="namedview20"
     showgrid="false"
     inkscape:zoom="0.81"
     inkscape:cx="477.13669"
     inkscape:cy="297.13304"
     inkscape:window-x="0"
     inkscape:window-y="0"
     inkscape:window-maximized="1"
     inkscape:current-layer="text4183"
     showguides="true"
     inkscape:guide-bbox="true"
     inkscape:showpageshadow="false"
     showborder="true"
     fit-margin-top="0"
     fit-margin-left="0"
     fit-margin-right="0"
     fit-margin-bottom="0"><sodipodi:guide
       position="54,200"
       orientation="0,1"
       id="guide4142" /><sodipodi:guide
       position="769.1358,49.382716"
       orientation="0,1"
       id="guide4144" /><sodipodi:guide
       position="220.98765,764.19753"
       orientation="1,0"
       id="guide4759" /></sodipodi:namedview><metadata
     id="metadata4"> Svg Vector Icons : http://www.onlinewebfonts.com/icon <rdf:RDF><cc:Work
     rdf:about=""><dc:format>image/svg+xml</dc:format><dc:type
       rdf:resource="http://purl.org/dc/dcmitype/StillImage" /><dc:title /></cc:Work></rdf:RDF></metadata><path
     d="M 82.120212,1.7172997 C 68.956403,4.5111328 58.586425,14.881112 55.713718,27.966053 c -0.560427,2.793833 -0.718177,4.865338 -0.240776,5.263868 0.398526,0.398522 2.553056,1.278599 4.865337,1.992625 12.125982,3.989415 21.620032,14.043888 25.368666,27.207699 2.075656,7.098745 1.357479,19.228877 -1.515229,25.53057 -2.395306,5.346884 -3.350108,6.222815 -5.425764,5.106111 -1.195578,-0.639304 -1.436354,-1.834877 -1.436354,-7.339519 0,-19.785156 -9.734826,-33.347487 -27.444323,-38.453598 -6.542467,-1.913756 -16.435042,-1.278608 -24.413863,1.515226 -5.263864,1.756007 -6.621343,2.710807 -11.250055,7.580291 C 8.318191,62.434392 3.2909524,71.608797 1.1364217,79.98614 c -1.51522891,6.065066 -1.51522891,19.228878 0,25.85023 5.5087907,23.293 27.8469993,40.76587 52.2608643,40.76587 13.724237,0 26.48952,-5.10611 36.382096,-14.52129 3.271234,-3.10933 7.260647,-7.73804 8.775872,-10.2911 l 2.872716,-4.54568 3.66975,2.79382 c 27.52319,21.14265 67.17653,1.67714 67.17653,-32.87008 0,-14.280515 -8.05769,-28.6399 -20.02593,-35.663921 -7.81692,-4.62871 -19.70628,-7.019867 -27.20769,-5.583511 l -3.82752,0.718174 0.63931,-2.075651 c 0.31964,-1.116704 0.56042,-5.824293 0.56042,-10.453003 0,-7.816928 -0.15774,-8.775883 -2.55305,-13.562342 C 115.15221,10.895851 106.29745,3.9548636 95.923325,1.8003344 89.538606,0.43870128 87.944502,0.43870128 82.120212,1.7173091 Z"
     id="path12"
     inkscape:connector-curvature="0"
     style="fill:#ffdd55;fill-opacity:1" /><g
     style="font-style:normal;font-weight:normal;font-size:51.33189011px;line-height:125%;font-family:Sans;text-align:center;letter-spacing:0px;word-spacing:0px;text-anchor:middle;fill:#000000;fill-opacity:1;stroke:none;stroke-width:1px;stroke-linecap:butt;stroke-linejoin:miter;stroke-opacity:1"
     id="text4183"
     transform="translate(0,-799.87999)"><path
       d="m 305.83415,858.76178 c 0,-27.61709 -19.37031,-40.65847 -51.01486,-40.65847 l -33.56243,0 0,132.14001 16.49353,0 0,-49.09702 17.0689,0 c 29.7267,0 51.01486,-11.5071 51.01486,-42.38452 z m -17.83603,0.19178 c 0,22.63065 -13.42497,28.95957 -31.64456,28.95957 l -18.60317,0 0,-56.57665 19.17853,0 c 17.83602,0 31.0692,7.28785 31.0692,27.61708 z"
       style="font-style:normal;font-variant:normal;font-weight:normal;font-stretch:normal;font-size:461.98703003px;font-family:'Fira Mono';-inkscape-font-specification:'Fira Mono'"
       id="path4197"
       inkscape:connector-curvature="0" /><path
       d="m 371.54158,801.99335 c -6.90428,0 -11.50713,4.79462 -11.50713,11.31532 0,6.52071 4.60285,11.31533 11.50713,11.31533 7.09604,0 11.89068,-4.79462 11.89068,-11.31533 0,-6.5207 -4.79464,-11.31532 -11.89068,-11.31532 z m 12.84959,47.17916 -46.22024,0 0,12.84961 30.11029,0 0,75.3716 -31.0692,0 0,12.8496 75.56337,0 0,-12.8496 -28.38422,0 0,-88.22121 z"
       style="font-style:normal;font-variant:normal;font-weight:normal;font-stretch:normal;font-size:461.98703003px;font-family:'Fira Mono';-inkscape-font-specification:'Fira Mono'"
       id="path4199"
       inkscape:connector-curvature="0" /><path
       d="m 493.44206,847.06288 c -12.08247,0 -22.82245,5.94533 -30.11029,16.30174 l -1.34249,-14.19211 -13.80855,0 0,141.72928 16.10996,-1.91786 0,-48.13809 c 6.90429,7.67142 15.7264,11.50712 26.84993,11.50712 26.27457,0 38.93242,-22.0553 38.93242,-52.74094 0,-31.64456 -9.78108,-52.54914 -36.63098,-52.54914 z m -3.83573,13.04138 c 15.91817,0 23.01425,13.23319 23.01425,39.50776 0,26.84994 -8.43857,39.31597 -25.12386,39.31597 -9.58928,0 -17.83603,-4.79462 -23.20603,-12.65782 l 0,-50.05595 c 5.56175,-8.05498 14.19212,-16.10996 25.31564,-16.10996 z"
       style="font-style:normal;font-variant:normal;font-weight:normal;font-stretch:normal;font-size:461.98703003px;font-family:'Fira Mono';-inkscape-font-specification:'Fira Mono'"
       id="path4201"
       inkscape:connector-curvature="0" /><path
       d="m 601.72579,847.06288 c -28.38422,0 -43.72705,21.67173 -43.72705,52.74093 0,31.83634 15.15104,52.54915 43.53527,52.54915 28.19242,0 43.53526,-21.67173 43.53526,-52.74094 0,-31.83635 -14.95925,-52.54914 -43.34348,-52.54914 z m 0,13.23317 c 17.26066,0 25.89099,12.65784 25.89099,39.31597 0,27.04172 -8.63033,39.50775 -26.08277,39.50775 -17.45246,0 -26.08278,-12.46603 -26.08278,-39.31596 0,-26.84992 8.82212,-39.50776 26.27456,-39.50776 z"
       style="font-style:normal;font-variant:normal;font-weight:normal;font-stretch:normal;font-size:461.98703003px;font-family:'Fira Mono';-inkscape-font-specification:'Fira Mono'"
       id="path4203"
       inkscape:connector-curvature="0" /><path
       d="m 724.00982,938.54443 c -17.45244,0 -30.1103,-11.31534 -30.1103,-38.35705 0,-26.65815 12.46607,-39.50775 29.91852,-39.50775 9.01391,0 17.45245,3.06855 26.08281,8.82211 l 7.86317,-10.54818 c -9.39746,-7.8632 -20.7128,-11.89068 -33.7542,-11.89068 -30.1103,0 -47.56274,22.82243 -47.56274,53.1245 0,31.64456 17.26069,52.16558 47.56274,52.16558 11.6989,0 25.31566,-4.60285 33.94599,-12.08246 l -7.67142,-10.5482 c -7.67138,5.1782 -16.10996,8.82213 -26.27457,8.82213 z"
       style="font-style:normal;font-variant:normal;font-weight:normal;font-stretch:normal;font-size:461.98703003px;font-family:'Fira Mono';-inkscape-font-specification:'Fira Mono'"
       id="path4205"
       inkscape:connector-curvature="0" /><path
       d="m 865.66416,928.18802 0,-48.52166 c 0,-19.94567 -12.65781,-32.60348 -37.78166,-32.60348 -9.97282,0 -20.7128,1.91785 -33.17886,6.32891 l 4.41106,12.27425 c 10.3564,-3.64392 19.56209,-5.17819 26.2746,-5.17819 14.95921,0 23.97312,5.36998 23.97312,20.13743 l 0,8.24677 -14.95925,0 c -30.49384,0 -47.17917,11.6989 -47.17917,32.4117 0,18.79496 12.27427,31.06921 32.6035,31.06921 13.04142,0 24.35674,-4.79463 31.64457,-14.1921 2.68499,9.20568 9.78103,13.23317 18.41136,14.38389 l 4.02752,-11.50712 c -5.75355,-1.72607 -8.24679,-4.79463 -8.24679,-12.84961 z m -41.80915,12.08248 c -13.23318,0 -19.3703,-6.52072 -19.3703,-19.17853 0,-13.0414 8.05495,-21.09637 30.30204,-21.09637 l 14.57567,0 0,25.891 c -5.94535,9.0139 -15.53458,14.3839 -25.50741,14.3839 z"
       style="font-style:normal;font-variant:normal;font-weight:normal;font-stretch:normal;font-size:461.98703003px;font-family:'Fira Mono';-inkscape-font-specification:'Fira Mono'"
       id="path4207"
       inkscape:connector-curvature="0" /></g></svg>