<?xml version="1.0" encoding="UTF-8" standalone="no"?>
<!-- The icon can be used freely in both personal and commercial projects with no attribution required, but always appreciated. 
You may NOT sub-license, resell, rent, redistribute or otherwise transfer the icon without express written permission from iconmonstr.com -->

<svg
   xmlns:dc="http://purl.org/dc/elements/1.1/"
   xmlns:cc="http://creativecommons.org/ns#"
   xmlns:rdf="http://www.w3.org/1999/02/22-rdf-syntax-ns#"
   xmlns:svg="http://www.w3.org/2000/svg"
   xmlns="http://www.w3.org/2000/svg"
   xmlns:sodipodi="http://sodipodi.sourceforge.net/DTD/sodipodi-0.dtd"
   xmlns:inkscape="http://www.inkscape.org/namespaces/inkscape"
   version="1.1"
   x="0px"
   y="0px"
   width="150"
   height="149.63593"
   viewBox="0 0 150 149.63593"
   enable-background="new 0 0 512 512"
   xml:space="preserve"
   id="svg2"
   inkscape:version="0.91 r13725"
   sodipodi:docname="video-icon.svg"
   inkscape:export-filename="/home/leo/video-icon.png"
   inkscape:export-xdpi="90.218979"
   inkscape:export-ydpi="90.218979"><metadata
     id="metadata9"><rdf:RDF><cc:Work
         rdf:about=""><dc:format>image/svg+xml</dc:format><dc:type
           rdf:resource="http://purl.org/dc/dcmitype/StillImage" /><dc:title /></cc:Work></rdf:RDF></metadata><defs
     id="defs7" /><sodipodi:namedview
     pagecolor="#ffffff"
     bordercolor="#666666"
     borderopacity="1"
     objecttolerance="10"
     gridtolerance="10"
     guidetolerance="10"
     inkscape:pageopacity="0"
     inkscape:pageshadow="2"
     inkscape:window-width="1600"
     inkscape:window-height="837"
     id="namedview5"
     showgrid="false"
     fit-margin-top="0"
     fit-margin-left="0"
     fit-margin-right="0"
     fit-margin-bottom="0"
     inkscape:zoom="1"
     inkscape:cx="-193"
     inkscape:cy="245.5"
     inkscape:window-x="0"
     inkscape:window-y="0"
     inkscape:window-maximized="1"
     inkscape:current-layer="svg2" /><rect
     style="color:#000000;display:inline;overflow:visible;visibility:visible;fill:#ffffff;fill-opacity:1;fill-rule:nonzero;stroke:none;stroke-width:1;stroke-miterlimit:4;stroke-dasharray:none;stroke-dashoffset:0;stroke-opacity:1;marker:none;enable-background:accumulate"
     id="rect3195"
     width="108.48206"
     height="22.735714"
     x="22.48575"
     y="28.069532"
     transform="matrix(0.98465095,-0.17453513,0.26499981,0.96424846,0,0)" /><rect
     style="color:#000000;display:inline;overflow:visible;visibility:visible;fill:#ffffff;fill-opacity:1;fill-rule:nonzero;stroke:none;stroke-width:1;stroke-miterlimit:4;stroke-dasharray:none;stroke-dashoffset:0;stroke-opacity:1;marker:none;enable-background:accumulate"
     id="rect3193"
     width="135"
     height="92"
     x="9"
     y="45.635925" /><path
     id="video-5-icon"
     d="M 70.409345,42.35461 148.95837,26.78446 148.90557,26.51978 143.64975,0 11.343922,26.22633 C 4.7584951,27.53155 0,33.30764 0,40.02087 l 0,88.25498 c 0,11.77827 9.5817961,21.36007 21.359709,21.36007 l 107.280581,0 c 11.77791,0 21.35971,-9.5818 21.35971,-21.36007 l 0,-85.65146 0,-0.26978 z m 65.027545,85.92124 c 0,3.74781 -3.04878,6.79696 -6.7966,6.79696 l -107.280581,0 c -3.747816,0 -6.796602,-3.04915 -6.796602,-6.79696 l 0,-51.35898 120.873783,0 z m -30.02621,-78.63969 -12.717597,12.7176 -19.087136,0 12.717597,-12.7176 z m 20.27803,-38.65267 14.97779,10.0227 -18.71213,3.71869 -14.98908,-10.03034 z M 88.828034,18.2898 103.82767,28.3267 85.116262,32.04502 70.105704,22.00085 Z M 51.926578,25.60449 66.94733,35.65594 48.235558,39.37427 33.203883,29.3159 Z m -3.223908,24.03167 19.087136,0 -12.717597,12.7176 -19.087136,0 z m 62.48119,12.7176 12.7176,-12.7176 19.08713,0 -12.71759,12.7176 z"
     inkscape:connector-curvature="0"
     sodipodi:nodetypes="cccccssssscccssssccscccccccccccccccccccccccccccccc"
     style="fill:#777777;fill-opacity:1;stroke:none" /><path
     sodipodi:type="star"
     style="color:#000000;display:inline;overflow:visible;visibility:visible;fill:#ffdd55;fill-opacity:1;fill-rule:nonzero;stroke:none;stroke-width:1;stroke-miterlimit:4;stroke-dasharray:none;stroke-dashoffset:0;stroke-opacity:1;marker:none;enable-background:accumulate"
     id="path3196"
     sodipodi:sides="3"
     sodipodi:cx="69.275261"
     sodipodi:cy="105.56851"
     sodipodi:r1="22.89896"
     sodipodi:r2="11.449481"
     sodipodi:arg1="2.0943951"
     sodipodi:arg2="3.1415927"
     inkscape:flatsided="true"
     inkscape:rounded="0"
     inkscape:randomized="0"
     d="m 57.825781,125.39959 0,-39.662159 34.34844,19.831079 z"
     inkscape:transform-center-x="-5.7247375"
     inkscape:transform-center-y="-1.1708836e-05" /></svg>